<?xml version="1.0" encoding="utf-8" standalone="no"?>
<!DOCTYPE svg PUBLIC "-//W3C//DTD SVG 1.1//EN"
  "http://www.w3.org/Graphics/SVG/1.1/DTD/svg11.dtd">
<svg height="345.6pt" version="1.1" viewBox="0 0 460.8 345.6" width="460.8pt" xmlns="http://www.w3.org/2000/svg" xmlns:xlink="http://www.w3.org/1999/xlink">
 <metadata>
  <rdf:RDF xmlns:cc="http://creativecommons.org/ns#" xmlns:dc="http://purl.org/dc/elements/1.1/" xmlns:rdf="http://www.w3.org/1999/02/22-rdf-syntax-ns#">
   <cc:Work>
    <dc:type rdf:resource="http://purl.org/dc/dcmitype/StillImage"/>
    <dc:date>2021-10-01T23:45:29.544099</dc:date>
    <dc:format>image/svg+xml</dc:format>
    <dc:creator>
     <cc:Agent>
      <dc:title>Matplotlib v3.4.3, https://matplotlib.org/</dc:title>
     </cc:Agent>
    </dc:creator>
   </cc:Work>
  </rdf:RDF>
 </metadata>
 <defs>
  <style type="text/css">*{stroke-linecap:butt;stroke-linejoin:round;}</style>
 </defs>
 <g id="figure_1">
  <g id="patch_1">
   <path d="M 0 345.6 
L 460.8 345.6 
L 460.8 0 
L 0 0 
z
" style="fill:#ffffff;"/>
  </g>
  <g id="axes_1">
   <g id="patch_2">
    <path d="M 57.6 307.584 
L 414.72 307.584 
L 414.72 41.472 
L 57.6 41.472 
z
" style="fill:#ffffff;"/>
   </g>
   <g id="PathCollection_1">
    <defs>
     <path d="M 0 3 
C 0.795609 3 1.55874 2.683901 2.12132 2.12132 
C 2.683901 1.55874 3 0.795609 3 0 
C 3 -0.795609 2.683901 -1.55874 2.12132 -2.12132 
C 1.55874 -2.683901 0.795609 -3 0 -3 
C -0.795609 -3 -1.55874 -2.683901 -2.12132 -2.12132 
C -2.683901 -1.55874 -3 -0.795609 -3 0 
C -3 0.795609 -2.683901 1.55874 -2.12132 2.12132 
C -1.55874 2.683901 -0.795609 3 0 3 
z
" id="m3efb48b854" style="stroke:#0000ff;"/>
    </defs>
    <g clip-path="url(#pb6cf704cc3)">
     <use style="fill:#0000ff;stroke:#0000ff;" x="237.779297" xlink:href="#m3efb48b854" y="161.609717"/>
    </g>
   </g>
   <g id="PathCollection_2">
    <defs>
     <path d="M 0 3 
C 0.795609 3 1.55874 2.683901 2.12132 2.12132 
C 2.683901 1.55874 3 0.795609 3 0 
C 3 -0.795609 2.683901 -1.55874 2.12132 -2.12132 
C 1.55874 -2.683901 0.795609 -3 0 -3 
C -0.795609 -3 -1.55874 -2.683901 -2.12132 -2.12132 
C -2.683901 -1.55874 -3 -0.795609 -3 0 
C -3 0.795609 -2.683901 1.55874 -2.12132 2.12132 
C -1.55874 2.683901 -0.795609 3 0 3 
z
" id="m818decd232" style="stroke:#808080;"/>
    </defs>
    <g clip-path="url(#pb6cf704cc3)">
     <use style="fill:#808080;stroke:#808080;" x="334.037131" xlink:href="#m818decd232" y="161.609717"/>
    </g>
   </g>
   <g id="matplotlib.axis_1">
    <g id="xtick_1">
     <g id="line2d_1">
      <path clip-path="url(#pb6cf704cc3)" d="M 94.574353 307.584 
L 94.574353 41.472 
" style="fill:none;stroke:#b0b0b0;stroke-linecap:square;stroke-width:0.8;"/>
     </g>
     <g id="line2d_2">
      <defs>
       <path d="M 0 0 
L 0 3.5 
" id="m6e7ed3d735" style="stroke:#000000;stroke-width:0.8;"/>
      </defs>
      <g>
       <use style="stroke:#000000;stroke-width:0.8;" x="94.574353" xlink:href="#m6e7ed3d735" y="307.584"/>
      </g>
     </g>
     <g id="text_1">
      <!-- −1.5 -->
      <g transform="translate(82.432946 322.182437)scale(0.1 -0.1)">
       <defs>
        <path d="M 678 2272 
L 4684 2272 
L 4684 1741 
L 678 1741 
L 678 2272 
z
" id="DejaVuSans-2212" transform="scale(0.015625)"/>
        <path d="M 794 531 
L 1825 531 
L 1825 4091 
L 703 3866 
L 703 4441 
L 1819 4666 
L 2450 4666 
L 2450 531 
L 3481 531 
L 3481 0 
L 794 0 
L 794 531 
z
" id="DejaVuSans-31" transform="scale(0.015625)"/>
        <path d="M 684 794 
L 1344 794 
L 1344 0 
L 684 0 
L 684 794 
z
" id="DejaVuSans-2e" transform="scale(0.015625)"/>
        <path d="M 691 4666 
L 3169 4666 
L 3169 4134 
L 1269 4134 
L 1269 2991 
Q 1406 3038 1543 3061 
Q 1681 3084 1819 3084 
Q 2600 3084 3056 2656 
Q 3513 2228 3513 1497 
Q 3513 744 3044 326 
Q 2575 -91 1722 -91 
Q 1428 -91 1123 -41 
Q 819 9 494 109 
L 494 744 
Q 775 591 1075 516 
Q 1375 441 1709 441 
Q 2250 441 2565 725 
Q 2881 1009 2881 1497 
Q 2881 1984 2565 2268 
Q 2250 2553 1709 2553 
Q 1456 2553 1204 2497 
Q 953 2441 691 2322 
L 691 4666 
z
" id="DejaVuSans-35" transform="scale(0.015625)"/>
       </defs>
       <use xlink:href="#DejaVuSans-2212"/>
       <use x="83.789062" xlink:href="#DejaVuSans-31"/>
       <use x="147.412109" xlink:href="#DejaVuSans-2e"/>
       <use x="179.199219" xlink:href="#DejaVuSans-35"/>
      </g>
     </g>
    </g>
    <g id="xtick_2">
     <g id="line2d_3">
      <path clip-path="url(#pb6cf704cc3)" d="M 142.703269 307.584 
L 142.703269 41.472 
" style="fill:none;stroke:#b0b0b0;stroke-linecap:square;stroke-width:0.8;"/>
     </g>
     <g id="line2d_4">
      <g>
       <use style="stroke:#000000;stroke-width:0.8;" x="142.703269" xlink:href="#m6e7ed3d735" y="307.584"/>
      </g>
     </g>
     <g id="text_2">
      <!-- −1.0 -->
      <g transform="translate(130.561863 322.182437)scale(0.1 -0.1)">
       <defs>
        <path d="M 2034 4250 
Q 1547 4250 1301 3770 
Q 1056 3291 1056 2328 
Q 1056 1369 1301 889 
Q 1547 409 2034 409 
Q 2525 409 2770 889 
Q 3016 1369 3016 2328 
Q 3016 3291 2770 3770 
Q 2525 4250 2034 4250 
z
M 2034 4750 
Q 2819 4750 3233 4129 
Q 3647 3509 3647 2328 
Q 3647 1150 3233 529 
Q 2819 -91 2034 -91 
Q 1250 -91 836 529 
Q 422 1150 422 2328 
Q 422 3509 836 4129 
Q 1250 4750 2034 4750 
z
" id="DejaVuSans-30" transform="scale(0.015625)"/>
       </defs>
       <use xlink:href="#DejaVuSans-2212"/>
       <use x="83.789062" xlink:href="#DejaVuSans-31"/>
       <use x="147.412109" xlink:href="#DejaVuSans-2e"/>
       <use x="179.199219" xlink:href="#DejaVuSans-30"/>
      </g>
     </g>
    </g>
    <g id="xtick_3">
     <g id="line2d_5">
      <path clip-path="url(#pb6cf704cc3)" d="M 190.832186 307.584 
L 190.832186 41.472 
" style="fill:none;stroke:#b0b0b0;stroke-linecap:square;stroke-width:0.8;"/>
     </g>
     <g id="line2d_6">
      <g>
       <use style="stroke:#000000;stroke-width:0.8;" x="190.832186" xlink:href="#m6e7ed3d735" y="307.584"/>
      </g>
     </g>
     <g id="text_3">
      <!-- −0.5 -->
      <g transform="translate(178.69078 322.182437)scale(0.1 -0.1)">
       <use xlink:href="#DejaVuSans-2212"/>
       <use x="83.789062" xlink:href="#DejaVuSans-30"/>
       <use x="147.412109" xlink:href="#DejaVuSans-2e"/>
       <use x="179.199219" xlink:href="#DejaVuSans-35"/>
      </g>
     </g>
    </g>
    <g id="xtick_4">
     <g id="line2d_7">
      <path clip-path="url(#pb6cf704cc3)" d="M 238.961103 307.584 
L 238.961103 41.472 
" style="fill:none;stroke:#b0b0b0;stroke-linecap:square;stroke-width:0.8;"/>
     </g>
     <g id="line2d_8">
      <g>
       <use style="stroke:#000000;stroke-width:0.8;" x="238.961103" xlink:href="#m6e7ed3d735" y="307.584"/>
      </g>
     </g>
     <g id="text_4">
      <!-- 0.0 -->
      <g transform="translate(231.00954 322.182437)scale(0.1 -0.1)">
       <use xlink:href="#DejaVuSans-30"/>
       <use x="63.623047" xlink:href="#DejaVuSans-2e"/>
       <use x="95.410156" xlink:href="#DejaVuSans-30"/>
      </g>
     </g>
    </g>
    <g id="xtick_5">
     <g id="line2d_9">
      <path clip-path="url(#pb6cf704cc3)" d="M 287.09002 307.584 
L 287.09002 41.472 
" style="fill:none;stroke:#b0b0b0;stroke-linecap:square;stroke-width:0.8;"/>
     </g>
     <g id="line2d_10">
      <g>
       <use style="stroke:#000000;stroke-width:0.8;" x="287.09002" xlink:href="#m6e7ed3d735" y="307.584"/>
      </g>
     </g>
     <g id="text_5">
      <!-- 0.5 -->
      <g transform="translate(279.138457 322.182437)scale(0.1 -0.1)">
       <use xlink:href="#DejaVuSans-30"/>
       <use x="63.623047" xlink:href="#DejaVuSans-2e"/>
       <use x="95.410156" xlink:href="#DejaVuSans-35"/>
      </g>
     </g>
    </g>
    <g id="xtick_6">
     <g id="line2d_11">
      <path clip-path="url(#pb6cf704cc3)" d="M 335.218936 307.584 
L 335.218936 41.472 
" style="fill:none;stroke:#b0b0b0;stroke-linecap:square;stroke-width:0.8;"/>
     </g>
     <g id="line2d_12">
      <g>
       <use style="stroke:#000000;stroke-width:0.8;" x="335.218936" xlink:href="#m6e7ed3d735" y="307.584"/>
      </g>
     </g>
     <g id="text_6">
      <!-- 1.0 -->
      <g transform="translate(327.267374 322.182437)scale(0.1 -0.1)">
       <use xlink:href="#DejaVuSans-31"/>
       <use x="63.623047" xlink:href="#DejaVuSans-2e"/>
       <use x="95.410156" xlink:href="#DejaVuSans-30"/>
      </g>
     </g>
    </g>
    <g id="xtick_7">
     <g id="line2d_13">
      <path clip-path="url(#pb6cf704cc3)" d="M 383.347853 307.584 
L 383.347853 41.472 
" style="fill:none;stroke:#b0b0b0;stroke-linecap:square;stroke-width:0.8;"/>
     </g>
     <g id="line2d_14">
      <g>
       <use style="stroke:#000000;stroke-width:0.8;" x="383.347853" xlink:href="#m6e7ed3d735" y="307.584"/>
      </g>
     </g>
     <g id="text_7">
      <!-- 1.5 -->
      <g transform="translate(375.396291 322.182437)scale(0.1 -0.1)">
       <use xlink:href="#DejaVuSans-31"/>
       <use x="63.623047" xlink:href="#DejaVuSans-2e"/>
       <use x="95.410156" xlink:href="#DejaVuSans-35"/>
      </g>
     </g>
    </g>
    <g id="text_8">
     <!-- x -->
     <g transform="translate(233.200625 335.860562)scale(0.1 -0.1)">
      <defs>
       <path d="M 3513 3500 
L 2247 1797 
L 3578 0 
L 2900 0 
L 1881 1375 
L 863 0 
L 184 0 
L 1544 1831 
L 300 3500 
L 978 3500 
L 1906 2253 
L 2834 3500 
L 3513 3500 
z
" id="DejaVuSans-78" transform="scale(0.015625)"/>
      </defs>
      <use xlink:href="#DejaVuSans-78"/>
     </g>
    </g>
   </g>
   <g id="matplotlib.axis_2">
    <g id="ytick_1">
     <g id="line2d_15">
      <path clip-path="url(#pb6cf704cc3)" d="M 57.6 305.996468 
L 414.72 305.996468 
" style="fill:none;stroke:#b0b0b0;stroke-linecap:square;stroke-width:0.8;"/>
     </g>
     <g id="line2d_16">
      <defs>
       <path d="M 0 0 
L -3.5 0 
" id="mb894a50b0c" style="stroke:#000000;stroke-width:0.8;"/>
      </defs>
      <g>
       <use style="stroke:#000000;stroke-width:0.8;" x="57.6" xlink:href="#mb894a50b0c" y="305.996468"/>
      </g>
     </g>
     <g id="text_9">
      <!-- −1.5 -->
      <g transform="translate(26.317187 309.795686)scale(0.1 -0.1)">
       <use xlink:href="#DejaVuSans-2212"/>
       <use x="83.789062" xlink:href="#DejaVuSans-31"/>
       <use x="147.412109" xlink:href="#DejaVuSans-2e"/>
       <use x="179.199219" xlink:href="#DejaVuSans-35"/>
      </g>
     </g>
    </g>
    <g id="ytick_2">
     <g id="line2d_17">
      <path clip-path="url(#pb6cf704cc3)" d="M 57.6 257.867551 
L 414.72 257.867551 
" style="fill:none;stroke:#b0b0b0;stroke-linecap:square;stroke-width:0.8;"/>
     </g>
     <g id="line2d_18">
      <g>
       <use style="stroke:#000000;stroke-width:0.8;" x="57.6" xlink:href="#mb894a50b0c" y="257.867551"/>
      </g>
     </g>
     <g id="text_10">
      <!-- −1.0 -->
      <g transform="translate(26.317187 261.66677)scale(0.1 -0.1)">
       <use xlink:href="#DejaVuSans-2212"/>
       <use x="83.789062" xlink:href="#DejaVuSans-31"/>
       <use x="147.412109" xlink:href="#DejaVuSans-2e"/>
       <use x="179.199219" xlink:href="#DejaVuSans-30"/>
      </g>
     </g>
    </g>
    <g id="ytick_3">
     <g id="line2d_19">
      <path clip-path="url(#pb6cf704cc3)" d="M 57.6 209.738634 
L 414.72 209.738634 
" style="fill:none;stroke:#b0b0b0;stroke-linecap:square;stroke-width:0.8;"/>
     </g>
     <g id="line2d_20">
      <g>
       <use style="stroke:#000000;stroke-width:0.8;" x="57.6" xlink:href="#mb894a50b0c" y="209.738634"/>
      </g>
     </g>
     <g id="text_11">
      <!-- −0.5 -->
      <g transform="translate(26.317187 213.537853)scale(0.1 -0.1)">
       <use xlink:href="#DejaVuSans-2212"/>
       <use x="83.789062" xlink:href="#DejaVuSans-30"/>
       <use x="147.412109" xlink:href="#DejaVuSans-2e"/>
       <use x="179.199219" xlink:href="#DejaVuSans-35"/>
      </g>
     </g>
    </g>
    <g id="ytick_4">
     <g id="line2d_21">
      <path clip-path="url(#pb6cf704cc3)" d="M 57.6 161.609717 
L 414.72 161.609717 
" style="fill:none;stroke:#b0b0b0;stroke-linecap:square;stroke-width:0.8;"/>
     </g>
     <g id="line2d_22">
      <g>
       <use style="stroke:#000000;stroke-width:0.8;" x="57.6" xlink:href="#mb894a50b0c" y="161.609717"/>
      </g>
     </g>
     <g id="text_12">
      <!-- 0.0 -->
      <g transform="translate(34.696875 165.408936)scale(0.1 -0.1)">
       <use xlink:href="#DejaVuSans-30"/>
       <use x="63.623047" xlink:href="#DejaVuSans-2e"/>
       <use x="95.410156" xlink:href="#DejaVuSans-30"/>
      </g>
     </g>
    </g>
    <g id="ytick_5">
     <g id="line2d_23">
      <path clip-path="url(#pb6cf704cc3)" d="M 57.6 113.480801 
L 414.72 113.480801 
" style="fill:none;stroke:#b0b0b0;stroke-linecap:square;stroke-width:0.8;"/>
     </g>
     <g id="line2d_24">
      <g>
       <use style="stroke:#000000;stroke-width:0.8;" x="57.6" xlink:href="#mb894a50b0c" y="113.480801"/>
      </g>
     </g>
     <g id="text_13">
      <!-- 0.5 -->
      <g transform="translate(34.696875 117.280019)scale(0.1 -0.1)">
       <use xlink:href="#DejaVuSans-30"/>
       <use x="63.623047" xlink:href="#DejaVuSans-2e"/>
       <use x="95.410156" xlink:href="#DejaVuSans-35"/>
      </g>
     </g>
    </g>
    <g id="ytick_6">
     <g id="line2d_25">
      <path clip-path="url(#pb6cf704cc3)" d="M 57.6 65.351884 
L 414.72 65.351884 
" style="fill:none;stroke:#b0b0b0;stroke-linecap:square;stroke-width:0.8;"/>
     </g>
     <g id="line2d_26">
      <g>
       <use style="stroke:#000000;stroke-width:0.8;" x="57.6" xlink:href="#mb894a50b0c" y="65.351884"/>
      </g>
     </g>
     <g id="text_14">
      <!-- 1.0 -->
      <g transform="translate(34.696875 69.151103)scale(0.1 -0.1)">
       <use xlink:href="#DejaVuSans-31"/>
       <use x="63.623047" xlink:href="#DejaVuSans-2e"/>
       <use x="95.410156" xlink:href="#DejaVuSans-30"/>
      </g>
     </g>
    </g>
    <g id="text_15">
     <!-- y -->
     <g transform="translate(20.2375 177.487375)rotate(-90)scale(0.1 -0.1)">
      <defs>
       <path d="M 2059 -325 
Q 1816 -950 1584 -1140 
Q 1353 -1331 966 -1331 
L 506 -1331 
L 506 -850 
L 844 -850 
Q 1081 -850 1212 -737 
Q 1344 -625 1503 -206 
L 1606 56 
L 191 3500 
L 800 3500 
L 1894 763 
L 2988 3500 
L 3597 3500 
L 2059 -325 
z
" id="DejaVuSans-79" transform="scale(0.015625)"/>
      </defs>
      <use xlink:href="#DejaVuSans-79"/>
     </g>
    </g>
   </g>
   <g id="line2d_27">
    <path clip-path="url(#pb6cf704cc3)" d="M 334.641389 161.612411 
L 334.531367 162.137843 
L 334.185416 162.696131 
L 333.509205 163.351397 
L 332.373266 164.127274 
L 330.71869 164.973544 
L 328.724228 165.740873 
L 326.537057 166.34697 
L 324.204056 166.760965 
L 321.836402 166.95709 
L 319.390491 166.937483 
L 316.852364 166.690764 
L 314.242526 166.20858 
L 311.553178 165.481978 
L 308.782781 164.504364 
L 305.752873 163.188972 
L 302.611788 161.580636 
L 299.061029 159.504318 
L 294.910102 156.801677 
L 289.416668 152.929966 
L 276.654323 143.833013 
L 271.824201 140.718495 
L 267.550353 138.218101 
L 263.504444 136.101873 
L 259.525145 134.273359 
L 255.652308 132.741608 
L 251.799299 131.462149 
L 247.973743 130.431516 
L 244.225117 129.649999 
L 240.429295 129.083714 
L 236.621903 128.737282 
L 232.744031 128.604639 
L 228.719269 128.692811 
L 224.714174 128.997467 
L 220.510594 129.535837 
L 216.080327 130.326307 
L 211.223349 131.427015 
L 205.895863 132.870305 
L 199.292865 134.907217 
L 182.0116 140.376491 
L 177.3661 141.531681 
L 173.459476 142.278546 
L 169.991691 142.721043 
L 166.825675 142.905762 
L 163.965277 142.86129 
L 161.2844 142.608999 
L 158.770049 142.159956 
L 156.302672 141.489424 
L 154.038881 140.642836 
L 151.845646 139.575626 
L 149.871109 138.368841 
L 147.988787 136.956835 
L 146.214948 135.337971 
L 144.660769 133.628335 
L 143.239233 131.752655 
L 141.949571 129.699861 
L 140.80314 127.471396 
L 139.823235 125.095656 
L 138.955952 122.359335 
L 138.305249 119.483824 
L 137.895191 116.636036 
L 137.693049 113.694589 
L 137.7046 110.635708 
L 137.941394 107.488943 
L 138.408245 104.276723 
L 139.060873 101.219767 
L 139.913717 98.170607 
L 140.99373 95.063116 
L 142.394282 91.735579 
L 143.923915 88.661488 
L 145.691209 85.594906 
L 147.654772 82.622657 
L 149.876692 79.669852 
L 152.291416 76.843337 
L 154.733285 74.309734 
L 157.349091 71.895203 
L 160.098311 69.641903 
L 162.966795 67.560712 
L 165.940007 65.661834 
L 169.002546 63.95422 
L 172.138434 62.44586 
L 175.33121 61.144454 
L 178.56374 60.055778 
L 181.818795 59.184645 
L 185.078567 58.534904 
L 188.201556 58.121958 
L 191.497424 57.914041 
L 194.740736 57.944844 
L 197.687765 58.187413 
L 200.555864 58.635975 
L 203.329148 59.289566 
L 205.991159 60.145298 
L 208.525916 61.201246 
L 210.7642 62.365003 
L 212.888225 63.714538 
L 214.85766 65.233487 
L 216.659511 66.92002 
L 218.171336 68.632447 
L 219.517117 70.483582 
L 220.698874 72.494215 
L 221.691966 74.646348 
L 222.438157 76.779036 
L 223.00165 79.031085 
L 223.380329 81.449948 
L 223.552823 83.955347 
L 223.519903 86.586651 
L 223.266937 89.416535 
L 222.777081 92.441822 
L 222.003457 95.800162 
L 220.931722 99.45228 
L 219.480635 103.606768 
L 217.373166 108.911826 
L 213.698908 117.451725 
L 210.015025 126.207338 
L 207.821405 132.010626 
L 206.179343 136.977627 
L 204.883712 141.596559 
L 203.87031 146.03597 
L 203.135477 150.225592 
L 202.63253 154.329333 
L 202.346259 158.501899 
L 202.289756 162.666301 
L 202.455031 166.718477 
L 202.845549 170.849401 
L 203.471995 175.069162 
L 204.309149 179.234238 
L 205.441719 183.716677 
L 206.870955 188.42407 
L 208.664046 193.522173 
L 210.91956 199.238926 
L 214.411409 207.405633 
L 218.493992 217.057791 
L 220.353886 222.037401 
L 221.64326 226.105931 
L 222.560405 229.732156 
L 223.144305 232.907798 
L 223.477742 235.939631 
L 223.562256 238.798008 
L 223.423741 241.352883 
L 223.06364 243.873491 
L 222.507944 246.202738 
L 221.730181 248.477599 
L 220.792437 250.544447 
L 219.639846 252.546803 
L 218.270482 254.462526 
L 216.804282 256.148771 
L 215.151343 257.732501 
L 213.305599 259.206497 
L 211.297564 260.540631 
L 208.921151 261.830486 
L 206.552727 262.86237 
L 203.804758 263.794146 
L 201.128117 264.466988 
L 198.286008 264.955978 
L 195.332432 265.242826 
L 192.272685 265.319832 
L 189.089534 265.176408 
L 185.870865 264.808703 
L 182.521381 264.193616 
L 179.172764 263.343659 
L 176.021186 262.326214 
L 172.853244 261.084488 
L 169.728234 259.634845 
L 166.80806 258.065842 
L 163.730697 256.170525 
L 160.696939 254.033505 
L 157.753567 251.672974 
L 155.115525 249.280678 
L 152.587216 246.69914 
L 150.221199 243.975043 
L 148.0296 241.122538 
L 146.023876 238.156546 
L 144.214229 235.092659 
L 142.609899 231.947242 
L 141.219936 228.737428 
L 140.050404 225.480737 
L 139.065686 222.020267 
L 138.356266 218.651725 
L 137.920218 215.533067 
L 137.699787 212.440399 
L 137.697862 209.390566 
L 137.914442 206.400605 
L 138.351453 203.487554 
L 139.007931 200.66874 
L 139.828048 198.109918 
L 140.844531 195.659482 
L 142.053529 193.338032 
L 143.454177 191.160199 
L 144.924034 189.278935 
L 146.5557 187.545524 
L 148.386139 185.940618 
L 150.229477 184.612259 
L 152.214699 183.445422 
L 154.341804 182.449153 
L 156.696174 181.606416 
L 159.119562 180.983724 
L 161.690705 180.557976 
L 164.348865 180.339374 
L 167.345275 180.328016 
L 170.523323 180.550949 
L 174.019697 181.033008 
L 177.845657 181.794985 
L 182.268416 182.913501 
L 187.785144 184.555949 
L 198.023801 187.900427 
L 205.845617 190.334499 
L 211.430593 191.843918 
L 216.401058 192.957621 
L 220.957038 193.750978 
L 225.205762 194.270578 
L 229.39163 194.556945 
L 233.337749 194.608539 
L 237.225093 194.441821 
L 241.023119 194.061795 
L 244.804059 193.46336 
L 248.532751 192.652099 
L 252.340172 191.592396 
L 256.181726 190.282905 
L 259.94868 188.763667 
L 263.790041 186.976544 
L 267.755479 184.887268 
L 271.910544 182.447806 
L 276.410213 179.550349 
L 281.984889 175.676163 
L 297.644402 164.608409 
L 301.571914 162.220597 
L 304.961249 160.413541 
L 308.057864 159.007223 
L 310.976594 157.922282 
L 313.693182 157.140745 
L 316.366455 156.601239 
L 318.916325 156.310878 
L 321.405071 156.249764 
L 323.811421 156.410764 
L 326.140283 156.785814 
L 328.412545 157.378223 
L 330.50134 158.150721 
L 332.27749 159.036024 
L 333.5762 159.922943 
L 334.301407 160.674659 
L 334.604715 161.305312 
L 334.616555 161.8601 
L 334.377162 162.432101 
L 333.882396 163.022927 
L 332.954567 163.76005 
L 331.533609 164.586404 
L 329.710101 165.390176 
L 327.577508 166.086554 
L 325.298989 166.595007 
L 322.921228 166.894244 
L 320.502943 166.973608 
L 318.01641 166.831801 
L 315.515824 166.472028 
L 312.91359 165.877848 
L 310.158595 165.017938 
L 307.219939 163.856549 
L 304.204759 162.425504 
L 300.871446 160.594159 
L 297.16398 158.300768 
L 292.553807 155.170636 
L 284.928454 149.667778 
L 277.440268 144.364549 
L 272.51899 141.148767 
L 268.061771 138.503506 
L 263.958589 136.326635 
L 260.068713 134.508036 
L 256.137832 132.920166 
L 252.3523 131.630793 
L 248.623946 130.589957 
L 244.806312 129.756556 
L 240.93383 129.146186 
L 237.044301 128.765005 
L 233.175497 128.608682 
L 229.198056 128.670576 
L 225.068017 128.962141 
L 220.914011 129.474906 
L 216.494236 130.243332 
L 211.849314 131.272714 
L 206.673819 132.646409 
L 200.344867 134.569544 
L 180.866901 140.683649 
L 176.532026 141.710528 
L 172.769404 142.384622 
L 169.3021 142.780434 
L 166.127517 142.914617 
L 163.276938 142.817108 
L 160.590766 142.506869 
L 158.093549 142.000072 
L 155.788078 141.3177 
L 153.53988 140.422887 
L 151.363587 139.304178 
L 149.403007 138.043586 
L 147.540707 136.576905 
L 145.793338 134.904137 
L 144.181116 133.033269 
L 142.793367 131.086936 
L 141.552026 128.978312 
L 140.461425 126.702777 
L 139.530611 124.261004 
L 138.731671 121.484832 
L 138.210916 118.944203 
L 137.840324 116.083901 
L 137.678611 113.125128 
L 137.732515 110.037177 
L 138.008775 106.909856 
L 138.525679 103.650181 
L 139.21296 100.618348 
L 140.117784 97.532418 
L 141.333521 94.195929 
L 142.793752 90.886103 
L 144.398081 87.794879 
L 146.201087 84.784512 
L 148.253689 81.788294 
L 150.515651 78.886987 
L 152.992943 76.084921 
L 155.486695 73.58472 
L 158.120887 71.23497 
L 161.117971 68.872225 
L 164.001855 66.871218 
L 166.983538 65.052522 
L 170.306262 63.298704 
L 173.7058 61.778793 
L 176.894052 60.590009 
L 180.113299 59.612992 
L 183.615833 58.798651 
L 186.844032 58.275971 
L 190.193323 57.967946 
L 193.433554 57.903453 
L 196.385974 58.053615 
L 199.486247 58.443459 
L 202.27474 59.014268 
L 204.959852 59.785293 
L 207.526086 60.753647 
L 209.957559 61.917404 
L 212.181885 63.236137 
L 214.053811 64.577971 
L 215.7878 66.063229 
L 217.373744 67.688928 
L 218.801344 69.452853 
L 220.060685 71.352597 
L 221.125585 73.351391 
L 222.033489 75.545492 
L 222.698823 77.715529 
L 223.180594 80.003674 
L 223.481784 82.546806 
L 223.564085 85.088013 
L 223.426629 87.926175 
L 223.061715 90.847119 
L 222.425932 94.087061 
L 221.508884 97.577948 
L 220.219414 101.568509 
L 218.480612 106.195238 
L 215.951342 112.263332 
L 209.518046 127.465043 
L 207.506353 132.910444 
L 205.921564 137.83384 
L 204.672908 142.441318 
L 203.720436 146.797851 
L 203.026514 150.982083 
L 202.564765 155.073685 
L 202.319981 159.226691 
L 202.300441 163.262609 
L 202.497866 167.318596 
L 202.915047 171.405685 
L 203.562477 175.57644 
L 204.470285 179.93307 
L 205.649443 184.452086 
L 207.116509 189.164677 
L 208.942905 194.262107 
L 211.344634 200.262724 
L 215.447817 209.790325 
L 218.661866 217.482096 
L 220.44716 222.308656 
L 221.720555 226.378822 
L 222.587934 229.859313 
L 223.162882 233.034955 
L 223.486501 236.067366 
L 223.560331 238.925164 
L 223.411228 241.478981 
L 223.039576 243.99776 
L 222.47127 246.328643 
L 221.680512 248.601483 
L 220.729869 250.665829 
L 219.565823 252.661254 
L 218.185197 254.569661 
L 216.59367 256.36718 
L 214.916666 257.935894 
L 212.905551 259.493346 
L 210.711932 260.884271 
L 208.453434 262.052842 
L 206.062389 263.048148 
L 203.465161 263.892329 
L 200.761085 264.543032 
L 197.688824 265.032021 
L 194.488348 265.286142 
L 191.389615 265.302506 
L 188.411783 265.117691 
L 184.942362 264.661429 
L 181.817736 264.03479 
L 178.457857 263.131892 
L 175.309937 262.06728 
L 171.901351 260.667691 
L 168.534348 259.019757 
L 165.404236 257.233597 
L 162.363162 255.242022 
L 159.344324 252.98622 
L 156.464578 250.539346 
L 153.855606 248.032696 
L 151.402571 245.376364 
L 149.118373 242.584021 
L 147.014658 239.670296 
L 145.102496 236.650303 
L 143.391609 233.540405 
L 141.890853 230.357158 
L 140.608699 227.117986 
L 139.599917 224.008954 
L 138.797127 220.876436 
L 138.207066 217.741607 
L 137.832623 214.62112 
L 137.675723 211.531629 
L 137.739253 208.490266 
L 138.023214 205.514167 
L 138.527605 202.620656 
L 139.253389 199.827061 
L 140.150512 197.267277 
L 141.235338 194.853034 
L 142.415459 192.731415 
L 143.871358 190.589871 
L 145.393195 188.746726 
L 147.077129 187.055476 
L 148.869354 185.566945 
L 150.75389 184.2794 
L 152.780695 183.156456 
L 154.949961 182.207065 
L 157.263326 181.439794 
L 159.723002 180.863306 
L 162.331493 180.485782 
L 165.09467 180.314636 
L 167.972972 180.354102 
L 171.169406 180.622565 
L 174.642004 181.141587 
L 178.622939 181.974987 
L 183.228587 183.183023 
L 189.030336 184.951665 
L 208.455359 191.069812 
L 213.635089 192.367464 
L 218.309562 193.318107 
L 222.711914 193.992489 
L 226.982201 194.420355 
L 230.973426 194.603726 
L 234.942242 194.566378 
L 238.786324 194.311969 
L 242.634331 193.834049 
L 246.44924 193.13281 
L 250.195355 192.218265 
L 253.997154 191.057299 
L 257.841114 189.642405 
L 261.733685 187.962802 
L 265.60556 186.050159 
L 269.728572 183.759415 
L 274.076057 181.083736 
L 278.998394 177.783536 
L 285.772731 172.937628 
L 295.157004 166.250317 
L 299.542414 163.419384 
L 303.134179 161.355386 
L 306.442946 159.709472 
L 309.448693 158.459709 
L 312.251144 157.527211 
L 314.920277 156.864014 
L 317.523281 156.441683 
L 320.018766 156.25604 
L 322.455051 156.292675 
L 324.856299 156.551426 
L 327.181792 157.028066 
L 329.373872 157.703767 
L 331.341767 158.537254 
L 332.929251 159.442299 
L 333.949969 160.263205 
L 334.46774 160.944911 
L 334.637924 161.516791 
L 334.57295 162.025897 
L 334.269545 162.588486 
L 333.648009 163.235868 
L 332.573001 164.006557 
L 330.992159 164.84914 
L 329.033408 165.636452 
L 326.86212 166.270859 
L 324.583408 166.709005 
L 322.184952 166.941795 
L 319.744527 166.953827 
L 317.28177 166.748221 
L 314.752596 166.32048 
L 312.147666 165.66197 
L 309.4305 164.752902 
L 306.53391 163.551363 
L 303.358556 161.98391 
L 299.9389 160.040445 
L 296.033335 157.557282 
L 291.025906 154.086937 
L 274.658802 142.512645 
L 270.143154 139.70413 
L 265.94766 137.349567 
L 262.000512 135.380805 
L 258.127674 133.692251 
L 254.265617 132.2531 
L 250.494813 131.084048 
L 246.777316 130.157759 
L 242.988906 129.440927 
L 239.164412 128.944333 
L 235.340239 128.669228 
L 231.388008 128.609163 
L 227.327574 128.774727 
L 223.250381 129.160335 
L 218.898949 129.798044 
L 214.359237 130.690065 
L 209.504473 131.868357 
L 203.875026 133.469991 
L 196.421109 135.844287 
L 184.105689 139.783446 
L 179.03396 141.146072 
L 174.832787 142.043195 
L 171.218016 142.591095 
L 167.901934 142.868799 
L 164.882133 142.899216 
L 162.045415 142.702946 
L 159.369447 142.287112 
L 156.891482 141.671832 
L 154.613251 140.880497 
L 152.399802 139.870463 
L 150.398698 138.716621 
L 148.489713 137.36054 
L 146.684108 135.797217 
L 144.995072 134.0228 
L 143.536766 132.17465 
L 142.22198 130.168348 
L 140.962928 127.810223 
L 139.955108 125.450077 
L 139.11574 122.931202 
L 138.418833 120.075714 
L 137.94332 117.065539 
L 137.709413 114.140648 
L 137.689199 111.085136 
L 137.911555 107.762123 
L 138.364929 104.519293 
L 139.049322 101.266548 
L 139.981098 97.955375 
L 141.164107 94.62264 
L 142.586797 91.321189 
L 144.160709 88.224382 
L 145.933586 85.205928 
L 147.954231 82.201721 
L 150.183851 79.290115 
L 152.64218 76.460904 
L 155.318051 73.744797 
L 158.158812 71.203109 
L 161.14781 68.850279 
L 164.267527 66.699301 
L 167.247573 64.903322 
L 170.308187 63.297742 
L 173.433775 61.890452 
L 176.608262 60.687229 
L 180.08317 59.620693 
L 183.574346 58.807314 
L 186.792341 58.282709 
L 189.96317 57.981422 
L 193.19676 57.899603 
L 196.144656 58.033401 
L 199.242041 58.403031 
L 202.24028 59.005605 
L 204.918365 59.770855 
L 207.478438 60.733433 
L 209.905098 61.88949 
L 212.187179 63.239025 
L 214.190208 64.68578 
L 216.033642 66.296366 
L 217.704678 68.068569 
L 219.09108 69.856173 
L 220.308452 71.778346 
L 221.322433 73.778198 
L 222.188175 75.991551 
L 222.851488 78.339472 
L 223.279739 80.652548 
L 223.520673 83.158621 
L 223.548587 85.889648 
L 223.343943 88.764003 
L 222.902794 91.776488 
L 222.189908 95.07149 
L 221.186035 98.648046 
L 219.810318 102.713207 
L 217.916445 107.59473 
L 214.893564 114.70597 
L 210.140064 125.895174 
L 207.967717 131.599605 
L 206.292253 136.610692 
L 204.949168 141.340898 
L 203.920171 145.790513 
L 203.151938 150.115955 
L 202.628969 154.366123 
L 202.346741 158.492254 
L 202.289467 162.648137 
L 202.460132 166.794039 
L 202.850554 170.8911 
L 203.476134 175.092937 
L 204.336005 179.352443 
L 205.470019 183.818325 
L 206.897619 188.505215 
L 208.616495 193.395017 
L 210.860361 199.095502 
L 214.275397 207.093469 
L 218.445286 216.935544 
L 220.311436 221.915058 
L 221.607837 225.982625 
L 222.533741 229.610775 
L 223.149117 232.9412 
L 223.479571 235.967931 
L 223.563507 238.680477 
L 223.420468 241.385322 
L 223.057672 243.904293 
L 222.498896 246.23354 
L 221.716608 248.51129 
L 220.772608 250.582951 
L 219.622327 252.573755 
L 218.249979 254.488227 
L 216.772806 256.181691 
L 214.996079 257.867166 
L 213.131083 259.332595 
L 211.098118 260.659991 
L 208.881878 261.848775 
L 206.508737 262.878734 
L 203.962814 263.747942 
L 201.295605 264.431373 
L 198.448491 264.933838 
L 195.518114 265.231275 
L 192.434879 265.321758 
L 189.274542 265.190847 
L 186.036525 264.832768 
L 182.943183 264.284098 
L 179.848397 263.53425 
L 176.682285 262.557233 
L 173.521948 261.365561 
L 170.384808 259.959234 
L 166.992586 258.171726 
L 163.932453 256.30288 
L 160.870973 254.163935 
L 157.937997 251.830067 
L 155.278778 249.437097 
L 152.757978 246.883377 
L 150.396196 244.188254 
L 148.205656 241.3653 
L 146.197333 238.429148 
L 144.381621 235.395101 
L 142.767666 232.279042 
L 141.364323 229.097721 
L 140.177464 225.868174 
L 139.169644 222.436005 
L 138.434235 219.086521 
L 137.969309 215.983169 
L 137.719039 212.903207 
L 137.683423 209.862999 
L 137.864388 206.879295 
L 138.262896 203.96894 
L 138.878946 201.148874 
L 139.639383 198.640587 
L 140.627951 196.133841 
L 141.790745 193.801706 
L 143.141916 191.608182 
L 144.564222 189.707764 
L 146.146316 187.950481 
L 147.88685 186.347211 
L 149.830392 184.878027 
L 151.773741 183.683179 
L 153.857146 182.655049 
L 156.081183 181.802301 
L 158.49841 181.121469 
L 161.021328 180.647207 
L 163.693926 180.373834 
L 166.52872 180.308283 
L 169.649687 180.467493 
L 173.055386 180.877648 
L 176.804725 181.566277 
L 180.974903 182.564085 
L 186.08475 184.027878 
L 193.692873 186.47456 
L 204.745101 190.010591 
L 210.421522 191.589605 
L 215.523957 192.77887 
L 220.160408 193.629212 
L 224.472663 194.196941 
L 228.649001 194.523158 
L 232.618617 194.61547 
L 236.612826 194.48273 
L 240.465979 194.131293 
L 244.306916 193.554805 
L 248.098744 192.757982 
L 251.807288 191.754879 
L 255.557205 190.512383 
L 259.436781 188.983809 
L 263.271308 187.23182 
L 267.198338 185.195389 
L 271.329917 182.803286 
L 275.824292 179.941059 
L 281.109424 176.300299 
L 298.601301 164.001465 
L 302.428224 161.739971 
L 305.71206 160.050013 
L 308.833317 158.695444 
L 311.756571 157.674851 
L 314.488753 156.955978 
L 317.153844 156.487867 
L 319.739425 156.266012 
L 322.227209 156.280017 
L 324.620949 156.51609 
L 326.963383 156.973469 
L 329.189057 157.637628 
L 331.192664 158.465099 
L 332.825197 159.373427 
L 333.890482 160.204478 
L 334.441558 160.896019 
L 334.63494 161.483174 
L 334.573143 162.024784 
L 334.270508 162.586879 
L 333.650319 163.233645 
L 332.594659 163.992782 
L 331.063486 164.815392 
L 329.09896 165.613139 
L 326.919875 166.25617 
L 324.610361 166.704327 
L 322.2223 166.939023 
L 319.788613 166.954607 
L 317.242305 166.742156 
L 314.704178 166.309083 
L 312.092799 165.644596 
L 309.380542 164.732851 
L 306.38086 163.480161 
L 303.159687 161.876217 
L 299.655132 159.867037 
L 295.718764 157.345515 
L 290.611516 153.788412 
L 275.262146 142.905088 
L 270.509608 139.919844 
L 266.239418 137.502617 
L 262.25906 135.499973 
L 258.365623 133.786776 
L 254.551695 132.349069 
L 250.758752 131.155953 
L 247.031215 130.211567 
L 243.269613 129.483858 
L 239.415605 128.967531 
L 235.518105 128.674522 
L 231.556517 128.60435 
L 227.495447 128.760384 
L 223.424222 129.136271 
L 219.084053 129.762813 
L 214.56263 130.641551 
L 209.696989 131.813298 
L 204.054258 133.410889 
L 196.743187 135.732628 
L 183.811814 139.861319 
L 178.877541 141.175527 
L 174.82961 142.035013 
L 171.214455 142.582143 
L 167.895485 142.859173 
L 164.88454 142.889013 
L 162.039351 142.691492 
L 159.369543 142.27585 
L 156.894466 141.660955 
L 154.61739 140.869812 
L 152.404904 139.86026 
L 150.402741 138.705647 
L 148.488847 137.34562 
L 146.683723 135.781816 
L 144.999693 134.012308 
L 143.541868 132.164639 
L 142.221018 130.14746 
L 141.047635 127.965679 
L 140.025377 125.609865 
L 139.176382 123.111204 
L 138.463112 120.257833 
L 137.97316 117.268931 
L 137.723852 114.337495 
L 137.688236 111.308454 
L 137.873051 108.194032 
L 138.29081 104.977961 
L 138.935738 101.749474 
L 139.840562 98.414332 
L 140.890734 95.339857 
L 142.163263 92.246034 
L 143.784245 88.924272 
L 145.499175 85.907167 
L 147.470631 82.883419 
L 149.634411 79.971235 
L 152.049231 77.107853 
L 154.66446 74.372783 
L 157.279112 71.951225 
L 160.067124 69.660288 
L 162.978346 67.546659 
L 165.997376 65.620732 
L 169.108141 63.891653 
L 172.293986 62.368854 
L 175.537683 61.059747 
L 178.821326 59.969146 
L 182.126724 59.103788 
L 185.273681 58.492551 
L 188.407259 58.091156 
L 191.5109 57.900565 
L 194.567856 57.923667 
L 197.561379 58.158536 
L 200.25371 58.562819 
L 203.077915 59.203896 
L 205.789306 60.053853 
L 208.129719 60.999105 
L 210.448185 62.163825 
L 212.623516 63.507584 
L 214.64185 65.02557 
L 216.489423 66.716435 
L 218.040425 68.43714 
L 219.421822 70.300692 
L 220.648339 72.352139 
L 221.605431 74.378655 
L 222.383675 76.528285 
L 222.974698 78.800836 
L 223.36589 81.157035 
L 223.56293 83.683033 
L 223.549454 86.337824 
L 223.302071 89.267239 
L 222.813274 92.334976 
L 222.043789 95.699957 
L 220.981584 99.336867 
L 219.520582 103.529858 
L 217.499071 108.631524 
L 213.927039 116.94204 
L 210.118309 125.959281 
L 207.961845 131.622996 
L 206.292638 136.613868 
L 204.964858 141.281699 
L 203.927294 145.753453 
L 203.167146 150.007183 
L 202.639461 154.237869 
L 202.345874 158.44784 
L 202.284558 162.523866 
L 202.442421 166.591407 
L 202.81234 170.613694 
L 203.408176 174.734473 
L 204.234261 178.931218 
L 205.340648 183.37987 
L 206.685466 187.882619 
L 208.372289 192.765202 
L 210.534625 198.332273 
L 213.666758 205.731613 
L 218.573309 217.314318 
L 220.364667 222.141071 
L 221.646918 226.214221 
L 222.554822 229.840831 
L 223.129673 233.019265 
L 223.452618 236.048403 
L 223.528566 238.757098 
L 223.391976 241.312359 
L 223.033993 243.833159 
L 222.480607 246.162983 
L 221.703806 248.441984 
L 220.767699 250.510276 
L 219.61992 252.508974 
L 218.250556 254.429029 
L 216.782913 256.119894 
L 215.135653 257.700832 
L 213.285096 259.18147 
L 211.122279 260.608974 
L 208.899589 261.808347 
L 206.536652 262.839268 
L 203.795229 263.771044 
L 201.125036 264.443886 
L 198.260596 264.938651 
L 195.099874 265.238013 
L 192.024821 265.300581 
L 188.612384 265.121541 
L 185.376581 264.720146 
L 182.028734 264.072331 
L 178.684448 263.191572 
L 175.264118 262.043216 
L 171.872473 260.649402 
L 168.732061 259.120828 
L 165.610805 257.35854 
L 162.567325 255.385543 
L 159.545984 253.15034 
L 156.646698 250.710396 
L 154.035319 248.225308 
L 151.577664 245.590442 
L 149.286439 242.819468 
L 147.173387 239.926535 
L 145.249385 236.926852 
L 143.524349 233.836109 
L 142.007325 230.670863 
L 140.705919 227.448247 
L 139.626869 224.186069 
L 138.812528 221.063176 
L 138.171451 217.696751 
L 137.798933 214.58512 
L 137.642033 211.504484 
L 137.7046 208.471592 
L 137.986636 205.503386 
L 138.440973 202.835889 
L 139.143655 200.040561 
L 140.057142 197.380091 
L 141.042822 195.134492 
L 142.289361 192.843459 
L 143.616853 190.846591 
L 145.107309 188.987274 
L 146.758708 187.276869 
L 148.590302 185.71085 
L 150.448464 184.405594 
L 152.447835 183.262436 
L 154.588417 182.29052 
L 156.935856 181.479259 
L 159.372238 180.879573 
L 161.95628 180.477215 
L 164.739864 180.27825 
L 167.601802 180.294133 
L 170.801027 180.540361 
L 174.274588 181.039554 
L 178.122591 181.824536 
L 182.528023 182.955758 
L 188.031853 184.608602 
L 199.282854 188.292196 
L 206.511528 190.514501 
L 211.944321 191.960775 
L 216.943182 193.057344 
L 221.463258 193.819899 
L 225.842219 194.326311 
L 230.019867 194.578603 
L 233.922256 194.597951 
L 237.902122 194.392055 
L 241.713259 193.97266 
L 245.500591 193.3337 
L 249.228926 192.482589 
L 253.022351 191.386019 
L 256.853028 190.039854 
L 260.652421 188.466904 
L 264.506777 186.632519 
L 268.554804 184.455937 
L 272.864171 181.876997 
L 277.634228 178.750157 
L 283.683359 174.488727 
L 295.915708 165.790455 
L 300.054121 163.164358 
L 303.660998 161.134186 
L 306.85002 159.587157 
L 309.869051 158.368678 
L 312.616538 157.488592 
L 315.347758 156.846091 
L 317.958174 156.461704 
L 320.459915 156.315315 
L 322.918822 156.394362 
L 325.304187 156.69461 
L 327.583861 157.203053 
L 329.76516 157.916901 
L 331.700713 158.78197 
L 333.194538 159.686399 
L 334.104848 160.488102 
L 334.509805 161.11786 
L 334.606833 161.661798 
L 334.460521 162.197624 
L 334.034869 162.785353 
L 333.23487 163.463383 
L 331.933945 164.247914 
L 330.163475 165.046218 
L 328.054658 165.747938 
L 325.820418 166.259712 
L 323.469705 166.571347 
L 321.08742 166.667383 
L 318.591166 166.543759 
L 316.03321 166.190541 
L 313.433864 165.608027 
L 310.660675 164.751429 
L 307.870642 163.660317 
L 304.853537 162.242783 
L 301.602717 160.469563 
L 297.906127 158.19241 
L 293.496075 155.201833 
L 286.697962 150.277957 
L 278.171154 144.148258 
L 273.123971 140.798004 
L 268.706217 138.127234 
L 264.46683 135.830233 
L 260.58812 133.973035 
L 256.660705 132.337903 
L 252.708262 130.943704 
L 248.824451 129.817488 
L 245.071396 128.954921 
L 241.250172 128.29902 
L 237.413084 127.859218 
L 233.422543 127.625697 
L 229.320207 127.612991 
L 225.052327 127.830726 
L 220.729773 128.274667 
L 216.044134 128.986879 
L 211.031123 129.981511 
L 205.413227 131.328351 
L 198.08839 133.330129 
L 184.784884 137.004771 
L 179.714503 138.143983 
L 175.566271 138.852825 
L 171.878249 139.257108 
L 168.659291 139.394468 
L 165.607051 139.302446 
L 162.889885 139.007127 
L 160.35917 138.521987 
L 157.870231 137.815647 
L 155.594504 136.937872 
L 153.394723 135.840725 
L 151.418935 134.6067 
L 149.545084 133.172073 
L 147.771341 131.518652 
L 146.236991 129.791498 
L 144.842504 127.905326 
L 143.567569 125.816338 
L 142.458775 123.585467 
L 141.506785 121.175844 
L 140.736722 118.639547 
L 140.112971 115.738528 
L 139.737566 112.914901 
L 139.569114 109.948234 
L 139.618206 106.923621 
L 139.893503 103.765305 
L 140.39982 100.565117 
L 141.138117 97.329314 
L 142.136311 94.005242 
L 143.272057 90.943377 
L 144.746535 87.625947 
L 146.345955 84.56052 
L 148.141645 81.569404 
L 150.194535 78.57232 
L 152.443792 75.678617 
L 154.901158 72.881364 
L 157.596859 70.164487 
L 160.457834 67.613558 
L 163.32112 65.351884 
L 166.314161 63.258276 
L 169.414337 61.349483 
L 172.605862 59.634169 
L 175.872468 58.120996 
L 179.197309 56.815739 
L 182.563157 55.725138 
L 185.952203 54.854005 
L 189.346447 54.205227 
L 192.727599 53.78073 
L 196.157843 53.581476 
L 199.534761 53.620942 
L 202.604904 53.869287 
L 205.821745 54.364052 
L 208.925867 55.092724 
L 211.689719 55.974446 
L 214.322852 57.049646 
L 216.809384 58.315436 
L 219.054598 59.711175 
L 221.235223 61.359109 
L 223.091748 63.059022 
L 224.762399 64.911023 
L 226.234566 66.910395 
L 227.412858 68.89475 
L 228.367736 70.922132 
L 229.122494 73.016029 
L 229.689625 75.213018 
L 230.061238 77.511944 
L 230.230546 79.937641 
L 230.186383 82.449585 
L 229.923879 85.066836 
L 229.417678 87.881511 
L 228.65882 90.845964 
L 227.585352 94.113243 
L 226.159966 97.704623 
L 224.332896 101.69297 
L 221.850696 106.559477 
L 217.555575 114.401988 
L 212.699945 123.383807 
L 209.973249 128.894953 
L 207.768463 133.85714 
L 205.969212 138.467313 
L 204.503012 142.841269 
L 203.315768 147.080368 
L 202.375329 151.257572 
L 201.651278 155.520072 
L 201.176246 159.631792 
L 200.916253 163.747594 
L 200.867739 168.023733 
L 201.043217 172.414467 
L 201.444227 176.894499 
L 202.089155 181.605646 
L 203.021123 186.727333 
L 204.302989 192.465936 
L 206.110518 199.482266 
L 210.260482 215.270476 
L 211.263585 220.180203 
L 211.866544 224.220144 
L 212.175243 227.735384 
L 212.24041 230.905443 
L 212.081488 233.877115 
L 211.705697 236.653672 
L 211.129787 239.217884 
L 210.376088 241.566479 
L 209.404365 243.837875 
L 208.286908 245.881333 
L 206.965865 247.824394 
L 205.44297 249.647132 
L 203.817368 251.24867 
L 202.022544 252.713136 
L 200.053302 254.038126 
L 197.910891 255.213819 
L 195.611388 256.223948 
L 193.154888 257.061295 
L 190.549188 257.714886 
L 187.822589 258.170763 
L 185.153263 258.414295 
L 182.211527 258.4682 
L 179.153608 258.301674 
L 176.234782 257.940707 
L 173.068477 257.33255 
L 169.831903 256.480572 
L 166.558945 255.381211 
L 163.315441 254.050543 
L 160.024674 252.44477 
L 156.788101 250.598737 
L 153.854066 248.678489 
L 150.921956 246.502004 
L 148.10266 244.137815 
L 145.410714 241.597089 
L 142.775078 238.796179 
L 140.304524 235.833363 
L 137.995299 232.698726 
L 135.986398 229.606925 
L 134.160387 226.41078 
L 132.526891 223.125596 
L 131.091687 219.767257 
L 129.77103 216.065469 
L 128.771873 212.607791 
L 127.989297 209.128937 
L 127.427151 205.646521 
L 127.085436 202.178255 
L 126.968001 198.742524 
L 127.073885 195.35088 
L 127.41175 191.955673 
L 127.981596 188.652778 
L 128.779574 185.462216 
L 129.720975 182.617316 
L 130.852005 179.902171 
L 132.166887 177.332279 
L 133.64637 174.945181 
L 135.219223 172.826547 
L 136.942238 170.878558 
L 138.811565 169.114084 
L 140.672229 167.651003 
L 142.650328 166.367068 
L 144.700908 165.291137 
L 146.925331 164.381982 
L 149.099506 163.725763 
L 151.366089 163.263485 
L 153.723733 163.003098 
L 156.201987 162.95313 
L 158.751087 163.123449 
L 161.394134 163.520147 
L 164.16405 164.158067 
L 167.133315 165.073007 
L 170.376242 166.317601 
L 173.822753 167.884814 
L 177.699826 169.896343 
L 182.445626 172.62402 
L 189.782976 177.142074 
L 198.666611 182.557443 
L 204.005745 185.545672 
L 208.603885 187.871646 
L 212.969755 189.832033 
L 217.097291 191.444255 
L 221.089489 192.770592 
L 225.028263 193.85022 
L 229.078889 194.721835 
L 233.016931 195.338559 
L 236.988616 195.733312 
L 240.956364 195.904651 
L 245.069346 195.853827 
L 249.101384 195.586615 
L 253.399104 195.076256 
L 257.748611 194.338247 
L 262.435597 193.315508 
L 267.603776 191.949802 
L 273.485419 190.15517 
L 282.144966 187.244141 
L 291.616159 184.115665 
L 296.646016 182.684793 
L 300.927276 181.695551 
L 304.633587 181.064388 
L 307.945338 180.715646 
L 311.083825 180.602736 
L 314.072438 180.717282 
L 316.984623 181.05996 
L 319.656355 181.594288 
L 322.337713 182.361944 
L 324.88999 183.329624 
L 327.336479 184.500408 
L 329.610378 185.833386 
L 331.734595 187.329426 
L 333.752833 189.021638 
L 335.647284 190.90704 
L 337.382813 192.955407 
L 338.990318 195.212846 
L 340.409159 197.596382 
L 341.632596 200.073 
L 342.687582 202.678892 
L 343.645347 205.669912 
L 344.360543 208.627434 
L 344.897662 211.792103 
L 345.228789 215.058035 
L 345.351036 218.412139 
L 345.262479 221.841228 
L 344.962154 225.331633 
L 344.448138 228.869879 
L 343.720428 232.442296 
L 342.691432 236.334962 
L 341.520937 239.934524 
L 340.139637 243.526 
L 338.407958 247.392196 
L 336.434673 251.216231 
L 334.226422 254.981645 
L 331.787633 258.672266 
L 329.125431 262.272309 
L 326.247321 265.766469 
L 323.162065 269.139343 
L 320.111173 272.159914 
L 316.811455 275.12658 
L 313.349638 277.946935 
L 309.736023 280.612314 
L 305.98139 283.11213 
L 302.09729 285.43772 
L 298.037808 287.610259 
L 293.787447 289.62301 
L 289.805068 291.28442 
L 285.380384 292.888076 
L 281.263629 294.164455 
L 276.720548 295.339763 
L 276.069557 295.488 
L 276.069557 295.488 
" style="fill:none;stroke:#ff0000;stroke-linecap:square;stroke-width:0.2;"/>
   </g>
   <g id="patch_3">
    <path d="M 57.6 307.584 
L 57.6 41.472 
" style="fill:none;stroke:#000000;stroke-linecap:square;stroke-linejoin:miter;stroke-width:0.8;"/>
   </g>
   <g id="patch_4">
    <path d="M 414.72 307.584 
L 414.72 41.472 
" style="fill:none;stroke:#000000;stroke-linecap:square;stroke-linejoin:miter;stroke-width:0.8;"/>
   </g>
   <g id="patch_5">
    <path d="M 57.6 307.584 
L 414.72 307.584 
" style="fill:none;stroke:#000000;stroke-linecap:square;stroke-linejoin:miter;stroke-width:0.8;"/>
   </g>
   <g id="patch_6">
    <path d="M 57.6 41.472 
L 414.72 41.472 
" style="fill:none;stroke:#000000;stroke-linecap:square;stroke-linejoin:miter;stroke-width:0.8;"/>
   </g>
   <g id="legend_1">
    <g id="patch_7">
     <path d="M 340.915313 93.506375 
L 407.72 93.506375 
Q 409.72 93.506375 409.72 91.506375 
L 409.72 48.472 
Q 409.72 46.472 407.72 46.472 
L 340.915313 46.472 
Q 338.915313 46.472 338.915313 48.472 
L 338.915313 91.506375 
Q 338.915313 93.506375 340.915313 93.506375 
z
" style="fill:#ffffff;opacity:0.8;stroke:#cccccc;stroke-linejoin:miter;"/>
    </g>
    <g id="line2d_28">
     <path d="M 342.915313 54.570438 
L 362.915313 54.570438 
" style="fill:none;stroke:#ff0000;stroke-linecap:square;stroke-width:0.2;"/>
    </g>
    <g id="line2d_29"/>
    <g id="text_16">
     <!-- Satellit -->
     <g transform="translate(370.915313 58.070438)scale(0.1 -0.1)">
      <defs>
       <path d="M 3425 4513 
L 3425 3897 
Q 3066 4069 2747 4153 
Q 2428 4238 2131 4238 
Q 1616 4238 1336 4038 
Q 1056 3838 1056 3469 
Q 1056 3159 1242 3001 
Q 1428 2844 1947 2747 
L 2328 2669 
Q 3034 2534 3370 2195 
Q 3706 1856 3706 1288 
Q 3706 609 3251 259 
Q 2797 -91 1919 -91 
Q 1588 -91 1214 -16 
Q 841 59 441 206 
L 441 856 
Q 825 641 1194 531 
Q 1563 422 1919 422 
Q 2459 422 2753 634 
Q 3047 847 3047 1241 
Q 3047 1584 2836 1778 
Q 2625 1972 2144 2069 
L 1759 2144 
Q 1053 2284 737 2584 
Q 422 2884 422 3419 
Q 422 4038 858 4394 
Q 1294 4750 2059 4750 
Q 2388 4750 2728 4690 
Q 3069 4631 3425 4513 
z
" id="DejaVuSans-53" transform="scale(0.015625)"/>
       <path d="M 2194 1759 
Q 1497 1759 1228 1600 
Q 959 1441 959 1056 
Q 959 750 1161 570 
Q 1363 391 1709 391 
Q 2188 391 2477 730 
Q 2766 1069 2766 1631 
L 2766 1759 
L 2194 1759 
z
M 3341 1997 
L 3341 0 
L 2766 0 
L 2766 531 
Q 2569 213 2275 61 
Q 1981 -91 1556 -91 
Q 1019 -91 701 211 
Q 384 513 384 1019 
Q 384 1609 779 1909 
Q 1175 2209 1959 2209 
L 2766 2209 
L 2766 2266 
Q 2766 2663 2505 2880 
Q 2244 3097 1772 3097 
Q 1472 3097 1187 3025 
Q 903 2953 641 2809 
L 641 3341 
Q 956 3463 1253 3523 
Q 1550 3584 1831 3584 
Q 2591 3584 2966 3190 
Q 3341 2797 3341 1997 
z
" id="DejaVuSans-61" transform="scale(0.015625)"/>
       <path d="M 1172 4494 
L 1172 3500 
L 2356 3500 
L 2356 3053 
L 1172 3053 
L 1172 1153 
Q 1172 725 1289 603 
Q 1406 481 1766 481 
L 2356 481 
L 2356 0 
L 1766 0 
Q 1100 0 847 248 
Q 594 497 594 1153 
L 594 3053 
L 172 3053 
L 172 3500 
L 594 3500 
L 594 4494 
L 1172 4494 
z
" id="DejaVuSans-74" transform="scale(0.015625)"/>
       <path d="M 3597 1894 
L 3597 1613 
L 953 1613 
Q 991 1019 1311 708 
Q 1631 397 2203 397 
Q 2534 397 2845 478 
Q 3156 559 3463 722 
L 3463 178 
Q 3153 47 2828 -22 
Q 2503 -91 2169 -91 
Q 1331 -91 842 396 
Q 353 884 353 1716 
Q 353 2575 817 3079 
Q 1281 3584 2069 3584 
Q 2775 3584 3186 3129 
Q 3597 2675 3597 1894 
z
M 3022 2063 
Q 3016 2534 2758 2815 
Q 2500 3097 2075 3097 
Q 1594 3097 1305 2825 
Q 1016 2553 972 2059 
L 3022 2063 
z
" id="DejaVuSans-65" transform="scale(0.015625)"/>
       <path d="M 603 4863 
L 1178 4863 
L 1178 0 
L 603 0 
L 603 4863 
z
" id="DejaVuSans-6c" transform="scale(0.015625)"/>
       <path d="M 603 3500 
L 1178 3500 
L 1178 0 
L 603 0 
L 603 3500 
z
M 603 4863 
L 1178 4863 
L 1178 4134 
L 603 4134 
L 603 4863 
z
" id="DejaVuSans-69" transform="scale(0.015625)"/>
      </defs>
      <use xlink:href="#DejaVuSans-53"/>
      <use x="63.476562" xlink:href="#DejaVuSans-61"/>
      <use x="124.755859" xlink:href="#DejaVuSans-74"/>
      <use x="163.964844" xlink:href="#DejaVuSans-65"/>
      <use x="225.488281" xlink:href="#DejaVuSans-6c"/>
      <use x="253.271484" xlink:href="#DejaVuSans-6c"/>
      <use x="281.054688" xlink:href="#DejaVuSans-69"/>
      <use x="308.837891" xlink:href="#DejaVuSans-74"/>
     </g>
    </g>
    <g id="PathCollection_3">
     <g>
      <use style="fill:#0000ff;stroke:#0000ff;" x="352.915313" xlink:href="#m3efb48b854" y="70.123563"/>
     </g>
    </g>
    <g id="text_17">
     <!-- Erde -->
     <g transform="translate(370.915313 72.748563)scale(0.1 -0.1)">
      <defs>
       <path d="M 628 4666 
L 3578 4666 
L 3578 4134 
L 1259 4134 
L 1259 2753 
L 3481 2753 
L 3481 2222 
L 1259 2222 
L 1259 531 
L 3634 531 
L 3634 0 
L 628 0 
L 628 4666 
z
" id="DejaVuSans-45" transform="scale(0.015625)"/>
       <path d="M 2631 2963 
Q 2534 3019 2420 3045 
Q 2306 3072 2169 3072 
Q 1681 3072 1420 2755 
Q 1159 2438 1159 1844 
L 1159 0 
L 581 0 
L 581 3500 
L 1159 3500 
L 1159 2956 
Q 1341 3275 1631 3429 
Q 1922 3584 2338 3584 
Q 2397 3584 2469 3576 
Q 2541 3569 2628 3553 
L 2631 2963 
z
" id="DejaVuSans-72" transform="scale(0.015625)"/>
       <path d="M 2906 2969 
L 2906 4863 
L 3481 4863 
L 3481 0 
L 2906 0 
L 2906 525 
Q 2725 213 2448 61 
Q 2172 -91 1784 -91 
Q 1150 -91 751 415 
Q 353 922 353 1747 
Q 353 2572 751 3078 
Q 1150 3584 1784 3584 
Q 2172 3584 2448 3432 
Q 2725 3281 2906 2969 
z
M 947 1747 
Q 947 1113 1208 752 
Q 1469 391 1925 391 
Q 2381 391 2643 752 
Q 2906 1113 2906 1747 
Q 2906 2381 2643 2742 
Q 2381 3103 1925 3103 
Q 1469 3103 1208 2742 
Q 947 2381 947 1747 
z
" id="DejaVuSans-64" transform="scale(0.015625)"/>
      </defs>
      <use xlink:href="#DejaVuSans-45"/>
      <use x="63.183594" xlink:href="#DejaVuSans-72"/>
      <use x="102.546875" xlink:href="#DejaVuSans-64"/>
      <use x="166.023438" xlink:href="#DejaVuSans-65"/>
     </g>
    </g>
    <g id="PathCollection_4">
     <g>
      <use style="fill:#808080;stroke:#808080;" x="352.915313" xlink:href="#m818decd232" y="84.801688"/>
     </g>
    </g>
    <g id="text_18">
     <!-- Mond -->
     <g transform="translate(370.915313 87.426688)scale(0.1 -0.1)">
      <defs>
       <path d="M 628 4666 
L 1569 4666 
L 2759 1491 
L 3956 4666 
L 4897 4666 
L 4897 0 
L 4281 0 
L 4281 4097 
L 3078 897 
L 2444 897 
L 1241 4097 
L 1241 0 
L 628 0 
L 628 4666 
z
" id="DejaVuSans-4d" transform="scale(0.015625)"/>
       <path d="M 1959 3097 
Q 1497 3097 1228 2736 
Q 959 2375 959 1747 
Q 959 1119 1226 758 
Q 1494 397 1959 397 
Q 2419 397 2687 759 
Q 2956 1122 2956 1747 
Q 2956 2369 2687 2733 
Q 2419 3097 1959 3097 
z
M 1959 3584 
Q 2709 3584 3137 3096 
Q 3566 2609 3566 1747 
Q 3566 888 3137 398 
Q 2709 -91 1959 -91 
Q 1206 -91 779 398 
Q 353 888 353 1747 
Q 353 2609 779 3096 
Q 1206 3584 1959 3584 
z
" id="DejaVuSans-6f" transform="scale(0.015625)"/>
       <path d="M 3513 2113 
L 3513 0 
L 2938 0 
L 2938 2094 
Q 2938 2591 2744 2837 
Q 2550 3084 2163 3084 
Q 1697 3084 1428 2787 
Q 1159 2491 1159 1978 
L 1159 0 
L 581 0 
L 581 3500 
L 1159 3500 
L 1159 2956 
Q 1366 3272 1645 3428 
Q 1925 3584 2291 3584 
Q 2894 3584 3203 3211 
Q 3513 2838 3513 2113 
z
" id="DejaVuSans-6e" transform="scale(0.015625)"/>
      </defs>
      <use xlink:href="#DejaVuSans-4d"/>
      <use x="86.279297" xlink:href="#DejaVuSans-6f"/>
      <use x="147.460938" xlink:href="#DejaVuSans-6e"/>
      <use x="210.839844" xlink:href="#DejaVuSans-64"/>
     </g>
    </g>
   </g>
  </g>
 </g>
 <defs>
  <clipPath id="pb6cf704cc3">
   <rect height="266.112" width="357.12" x="57.6" y="41.472"/>
  </clipPath>
 </defs>
</svg>
